<svg width="22" height="24" viewBox="0 0 22 24" fill="none" xmlns="http://www.w3.org/2000/svg">
<path d="M1 24C0.734784 24 0.48043 23.8946 0.292893 23.7071C0.105357 23.5195 0 23.2652 0 23V0.999951C2.97509e-05 0.82618 0.0453407 0.655417 0.131467 0.504491C0.217593 0.353565 0.341561 0.227688 0.491153 0.139265C0.640745 0.0508426 0.810796 0.00292691 0.984546 0.000241513C1.1583 -0.00244389 1.32975 0.0401937 1.482 0.123951L21.482 11.124C21.6388 11.2103 21.7695 11.3371 21.8606 11.4912C21.9517 11.6453 21.9997 11.821 21.9997 12C21.9997 12.1789 21.9517 12.3546 21.8606 12.5087C21.7695 12.6628 21.6388 12.7896 21.482 12.876L1.482 23.8759C1.33435 23.9572 1.16855 23.9999 1 24Z" fill="black"/>
</svg>
