<svg width="17" height="17" viewBox="0 0 17 17" fill="none" xmlns="http://www.w3.org/2000/svg">
<path d="M14.8525 13.1475C14.4622 12.7736 14.0823 12.389 13.7133 11.9942C13.4033 11.6792 13.2167 11.45 13.2167 11.45L10.8833 10.3358C11.8175 9.27635 12.3331 7.91248 12.3333 6.49999C12.3333 3.28416 9.71666 0.666656 6.5 0.666656C3.28333 0.666656 0.666664 3.28416 0.666664 6.49999C0.666664 9.71582 3.28333 12.3333 6.5 12.3333C7.96916 12.3333 9.30833 11.7833 10.3358 10.8842L11.45 13.2175C11.45 13.2175 11.6792 13.4042 11.9942 13.7142C12.3167 14.0167 12.7408 14.4258 13.1475 14.8533L14.2792 16.0133L14.7825 16.5517L16.55 14.7842L16.0117 14.2808C15.6958 13.9708 15.2742 13.5592 14.8525 13.1475ZM6.5 10.6667C4.2025 10.6667 2.33333 8.79749 2.33333 6.49999C2.33333 4.20249 4.2025 2.33332 6.5 2.33332C8.7975 2.33332 10.6667 4.20249 10.6667 6.49999C10.6667 8.79749 8.7975 10.6667 6.5 10.6667Z" fill="white"/>
</svg>
